<?xml version="1.0" standalone="no"?>
<!DOCTYPE svg PUBLIC "-//W3C//DTD SVG 20010904//EN"
 "http://www.w3.org/TR/2001/REC-SVG-20010904/DTD/svg10.dtd">
<svg version="1.0" xmlns="http://www.w3.org/2000/svg"
 width="1280.000000pt" height="1012.000000pt" viewBox="0 0 1280.000000 1012.000000"
 preserveAspectRatio="xMidYMid meet">
<metadata>
Created by potrace 1.15, written by Peter Selinger 2001-2017
</metadata>
<g transform="translate(0.000000,1012.000000) scale(0.100000,-0.100000)"
fill="#000000" stroke="none">
<path d="M7730 10108 c-516 -109 -956 -312 -1210 -560 -76 -75 -180 -204 -180
-225 0 -6 111 -170 247 -365 178 -254 247 -360 246 -378 -3 -43 -71 -311 -109
-426 -19 -60 -60 -158 -90 -219 -31 -62 -59 -136 -65 -170 -15 -80 -4 -213 26
-327 14 -51 38 -167 55 -259 33 -187 69 -317 105 -389 17 -33 65 -85 157 -170
227 -209 332 -276 418 -268 95 9 170 106 170 220 0 77 -24 122 -114 219 -118
127 -210 304 -244 469 -21 100 -8 142 17 55 55 -188 162 -367 324 -541 75 -80
86 -115 68 -222 -20 -122 -81 -218 -165 -260 -60 -31 -59 -49 6 -118 103 -109
280 -207 461 -256 69 -18 109 -22 252 -22 147 -1 182 2 258 22 254 67 647 273
815 427 104 95 178 212 222 350 29 90 39 348 20 488 -20 149 -66 293 -110 342
-13 14 -19 43 -23 100 -7 117 -31 180 -92 240 -39 39 -72 90 -143 228 -308
593 -591 1004 -756 1097 l-51 29 -225 451 c-124 247 -229 450 -235 449 -5 -1
-30 -5 -55 -11z m220 -468 c110 -220 200 -402 200 -404 0 -2 -60 -6 -132 -9
-73 -3 -164 -13 -203 -21 -269 -60 -540 -204 -793 -421 -63 -53 -117 -93 -122
-89 -17 20 -448 591 -460 610 -11 19 -9 26 18 66 88 129 281 277 504 389 228
114 441 190 785 278 2 1 93 -179 203 -399z m482 -760 c263 -312 523 -700 627
-935 20 -45 49 -97 64 -114 56 -67 80 -119 85 -190 2 -38 0 -76 -5 -85 -7 -13
3 -42 38 -114 113 -228 154 -463 114 -656 -17 -81 -54 -183 -80 -218 -17 -23
-17 -23 -11 17 3 22 11 107 17 188 23 295 -29 554 -142 711 -28 41 -30 48 -20
77 15 43 14 103 -3 142 -16 41 -75 93 -113 101 -26 6 -30 13 -42 69 -41 202
-272 602 -648 1127 l-54 75 46 -50 c26 -27 83 -93 127 -145z"/>
<path d="M4711 8889 c-47 -5 -86 -11 -88 -13 -5 -5 -36 -189 -103 -614 l-59
-372 -40 -48 c-97 -116 -179 -326 -271 -692 -43 -173 -110 -498 -136 -665 -13
-88 -23 -120 -48 -160 -27 -43 -31 -60 -34 -135 -3 -56 2 -106 12 -147 15 -55
15 -68 1 -125 -8 -35 -15 -90 -15 -123 0 -79 24 -241 50 -340 126 -474 391
-660 1058 -741 359 -43 636 19 872 197 131 99 258 254 295 360 22 60 19 67
-22 74 -141 23 -247 126 -288 280 l-18 65 56 118 c89 186 146 436 136 590 -8
106 23 36 36 -83 8 -73 -8 -223 -36 -325 -11 -41 -40 -118 -64 -170 -25 -53
-48 -116 -51 -141 -12 -88 28 -172 110 -226 89 -60 173 -41 257 60 98 116 273
417 290 498 15 68 6 246 -21 429 -11 74 -20 171 -20 215 0 103 -31 249 -69
331 -21 45 -57 92 -119 158 -104 109 -205 247 -315 433 l-79 132 35 113 c19
62 79 252 132 423 l97 309 -28 23 c-185 151 -419 243 -764 299 -114 19 -619
28 -749 13z m485 -70 c338 -19 596 -75 784 -169 83 -42 180 -109 180 -125 0
-6 -34 -105 -75 -220 -42 -116 -101 -281 -132 -367 -30 -87 -60 -158 -65 -158
-4 0 -34 13 -66 29 -149 75 -415 156 -593 182 -221 31 -506 3 -672 -66 -15 -6
-17 -4 -13 16 3 13 35 211 72 439 37 228 71 420 76 425 8 9 108 17 274 23 29
1 132 -3 230 -9z m-768 -1271 c-119 -364 -210 -724 -238 -939 -6 -47 -10 -130
-8 -183 l3 -97 -46 -48 c-30 -32 -49 -61 -53 -84 -8 -43 7 -108 36 -156 21
-33 21 -34 2 -90 -27 -82 -31 -274 -9 -399 21 -118 82 -305 140 -429 24 -51
40 -93 35 -93 -20 0 -131 147 -169 223 -71 141 -85 212 -85 432 -1 123 4 210
12 247 13 55 12 60 -8 89 -42 58 -42 173 0 271 11 26 20 60 20 76 0 113 82
460 171 727 68 202 241 635 253 635 2 0 -23 -82 -56 -182z"/>
<path d="M1025 6519 c-216 -31 -427 -147 -599 -330 -99 -105 -158 -190 -231
-334 -253 -497 -259 -1146 -15 -1636 23 -46 97 -208 165 -359 122 -273 379
-814 597 -1255 l113 -230 -32 -29 -33 -28 0 -667 c0 -655 0 -668 -20 -686 -26
-24 -26 -95 0 -152 l19 -43 156 0 156 0 21 47 c27 62 27 116 -2 155 l-22 30 3
654 4 654 -32 36 c-30 34 -31 38 -18 64 8 15 86 186 173 381 207 461 508 1091
671 1409 256 497 253 1166 -8 1665 -98 186 -215 333 -357 446 -209 166 -468
242 -709 208z m272 -195 c93 -21 107 -31 60 -39 -46 -9 -97 -2 -207 30 l-85
24 82 0 c45 1 112 -6 150 -15z m-141 -30 c101 -27 199 -34 243 -17 24 10 81
-3 81 -18 0 -13 -88 -41 -145 -46 -47 -4 -83 1 -157 21 -121 33 -186 33 -272
1 -44 -16 -86 -25 -124 -24 -56 0 -57 0 -34 17 37 27 223 90 268 91 23 0 86
-11 140 -25z m5 -75 c116 -34 174 -35 260 -5 41 14 83 26 92 26 13 0 97 -47
97 -54 0 0 -28 -1 -63 -1 -42 0 -78 -7 -114 -22 -67 -30 -164 -30 -253 -3
-111 35 -184 36 -264 6 -75 -29 -162 -34 -231 -15 l-40 11 24 17 c18 11 49 16
110 16 61 1 95 6 118 18 75 40 143 42 264 6z m8 -74 c121 -32 182 -32 267 0
77 29 160 33 209 10 39 -19 102 -83 70 -71 -11 4 -51 15 -90 23 -76 18 -112
13 -217 -26 -72 -26 -105 -26 -199 -1 -166 46 -187 46 -299 10 -84 -27 -109
-31 -153 -26 -68 9 -167 37 -167 47 0 4 9 14 21 22 18 13 27 13 72 1 77 -20
153 -17 222 11 78 31 146 31 264 0z m-13 -71 c127 -34 198 -34 287 0 82 31
116 32 227 5 66 -16 91 -28 113 -51 16 -16 26 -32 24 -35 -3 -2 -48 7 -100 21
-117 32 -198 34 -264 5 -78 -34 -153 -36 -265 -5 -121 33 -186 33 -272 1 -85
-32 -134 -31 -274 3 l-112 28 24 23 24 23 78 -22 c107 -30 182 -29 264 3 83
33 125 33 246 1z m-517 -75 c139 -35 193 -34 272 0 79 35 114 35 249 2 68 -17
139 -31 157 -31 18 0 74 14 125 31 102 34 127 34 248 -1 36 -10 83 -21 105
-25 26 -4 46 -15 58 -31 l18 -24 -47 0 c-25 0 -90 12 -142 26 -111 30 -179 29
-252 -5 -60 -27 -163 -28 -250 -1 -111 35 -184 36 -264 6 -88 -33 -157 -34
-282 -1 -53 14 -114 25 -135 25 l-40 0 23 30 c12 17 24 30 27 30 3 0 62 -14
130 -31z m6 -74 c115 -32 176 -32 261 0 84 32 143 32 263 0 121 -32 182 -32
267 0 38 14 88 25 115 25 27 0 92 -11 145 -25 53 -14 117 -25 141 -25 45 0 72
-17 73 -47 0 -22 -124 -16 -204 9 -98 30 -204 31 -273 1 -67 -30 -164 -30
-253 -3 -111 35 -184 36 -264 6 -88 -33 -157 -34 -282 -1 -103 27 -166 31
-210 15 -15 -6 -28 -9 -30 -7 -2 2 8 20 22 40 24 35 27 37 82 37 31 0 97 -11
147 -25z m0 -80 c115 -32 176 -32 261 0 84 32 143 32 263 0 121 -32 182 -32
267 0 84 32 138 32 265 -1 77 -20 117 -25 164 -22 54 5 63 3 74 -14 7 -11 10
-22 8 -24 -2 -3 -29 -10 -60 -16 -50 -11 -66 -9 -188 21 -146 36 -182 36 -263
1 -75 -32 -139 -35 -226 -10 -41 11 -104 26 -140 32 -61 10 -71 8 -158 -21
-51 -17 -105 -31 -120 -31 -15 0 -81 14 -147 30 -141 35 -154 36 -236 10 -35
-10 -65 -18 -67 -15 -2 2 4 15 14 30 39 59 143 70 289 30z m-15 -71 c123 -34
194 -34 284 0 86 33 127 33 246 0 122 -34 193 -34 283 0 83 32 118 32 237 2
139 -35 159 -37 223 -22 53 13 58 12 67 -5 14 -26 14 -26 -37 -43 -65 -22
-124 -20 -228 9 -113 31 -196 32 -262 4 -78 -34 -144 -35 -260 -5 -129 33
-189 33 -284 0 -86 -30 -158 -29 -269 6 -88 27 -170 26 -256 -4 -38 -14 -71
-23 -73 -21 -2 3 2 17 8 32 9 23 24 33 79 50 88 29 128 28 242 -3z m-16 -69
c157 -41 187 -41 294 -6 51 17 102 31 113 31 12 0 78 -14 147 -31 142 -35 187
-35 274 3 68 29 148 29 248 -2 94 -29 198 -32 258 -7 42 17 43 17 51 -5 11
-28 8 -31 -53 -52 -67 -22 -157 -20 -236 4 -111 35 -183 36 -269 6 -91 -32
-171 -34 -261 -6 -111 35 -184 36 -264 6 -88 -33 -157 -34 -282 -1 -120 31
-161 31 -249 0 -38 -13 -82 -25 -98 -25 -27 0 -27 0 -12 30 9 18 23 30 35 30
11 0 43 9 72 19 101 37 112 37 232 6z m31 -80 c115 -32 176 -32 261 0 84 32
142 32 264 0 122 -32 182 -32 266 0 38 14 88 25 115 25 27 0 92 -11 145 -25
118 -31 175 -31 255 -4 63 22 78 18 79 -18 0 -14 -147 -63 -188 -63 -14 0 -83
14 -151 31 -138 34 -175 34 -257 -2 -65 -29 -165 -30 -259 -1 -126 38 -162 38
-263 3 -50 -17 -103 -31 -119 -31 -16 0 -82 14 -148 30 -145 36 -157 37 -250
5 -41 -13 -93 -28 -116 -31 -41 -7 -42 -6 -36 17 4 13 7 27 7 32 0 4 15 7 33
8 17 0 59 11 92 24 80 31 156 31 270 0z m5 -75 c93 -30 179 -28 264 4 86 33
127 33 246 0 122 -34 194 -34 283 0 85 33 118 32 242 0 127 -34 190 -34 283
-1 l73 26 10 -26 c5 -14 8 -26 7 -27 -2 -1 -42 -14 -89 -29 -105 -33 -150 -34
-264 -2 -113 31 -196 32 -262 4 -78 -34 -144 -35 -260 -5 -129 33 -189 33
-284 0 -86 -30 -158 -29 -269 6 -89 27 -170 26 -258 -5 -78 -27 -152 -33 -151
-12 1 30 16 42 55 45 23 2 72 14 110 28 81 29 159 28 264 -6z m-36 -65 c157
-41 187 -41 294 -6 51 17 102 31 114 31 13 0 79 -14 148 -31 140 -35 185 -35
272 3 68 29 148 29 248 -2 104 -32 193 -31 290 3 41 14 78 23 81 19 4 -4 10
-17 14 -29 5 -18 2 -23 -13 -23 -10 0 -52 -11 -92 -25 -91 -31 -171 -32 -260
-5 -111 35 -183 36 -269 6 -91 -32 -171 -34 -261 -6 -111 35 -184 36 -264 6
-88 -33 -162 -34 -281 -1 -113 31 -161 31 -253 0 -73 -25 -182 -34 -182 -16 0
30 14 41 52 41 22 0 72 11 111 24 129 43 128 43 251 11z m31 -80 c115 -32 176
-32 261 0 84 32 142 32 264 0 120 -31 177 -31 265 0 88 31 145 31 264 0 119
-31 173 -31 263 0 39 14 84 25 99 25 21 0 28 -6 31 -25 4 -20 1 -25 -15 -25
-11 0 -62 -13 -114 -30 -51 -16 -105 -30 -120 -30 -15 0 -84 14 -152 31 -138
34 -175 34 -257 -2 -65 -29 -165 -30 -259 -1 -126 38 -162 38 -263 3 -50 -17
-103 -31 -119 -31 -16 0 -82 14 -148 30 -144 36 -157 36 -248 6 -100 -33 -132
-39 -176 -31 -34 6 -37 9 -33 31 4 22 9 24 61 24 33 0 82 10 121 24 86 32 162
32 275 1z m5 -75 c93 -29 179 -28 264 4 85 32 128 33 241 1 121 -34 200 -34
288 -1 84 32 118 32 241 0 127 -32 192 -33 286 0 85 30 125 33 134 10 13 -35
7 -44 -32 -44 -21 0 -72 -11 -112 -25 -92 -31 -142 -31 -255 0 -113 31 -203
33 -265 4 -73 -34 -141 -35 -257 -5 -129 33 -189 33 -284 0 -86 -30 -158 -29
-269 6 -90 28 -170 26 -261 -6 -56 -20 -88 -25 -131 -22 -66 5 -69 6 -62 35 5
20 13 22 73 22 47 0 86 7 136 26 82 30 157 29 265 -5z m-10 -70 c117 -35 163
-36 268 -1 51 17 102 31 114 31 13 0 79 -14 147 -31 140 -35 187 -34 276 4 65
28 146 27 245 -3 105 -33 193 -31 293 4 101 35 131 33 135 -11 3 -33 3 -33
-41 -33 -24 0 -77 -11 -117 -25 -92 -31 -142 -31 -255 0 -113 31 -203 33 -265
4 -73 -34 -141 -35 -257 -5 -129 33 -189 33 -284 0 -86 -30 -158 -29 -269 6
-89 27 -170 26 -258 -5 -71 -25 -123 -30 -179 -19 -25 5 -29 10 -25 33 3 26 5
26 80 27 57 1 95 8 147 28 80 30 135 29 245 -4z m0 -80 c117 -35 163 -36 268
-1 51 17 102 31 114 31 13 0 79 -14 147 -31 140 -35 187 -34 276 4 65 28 146
27 245 -3 105 -33 193 -31 293 4 99 34 141 32 145 -6 3 -27 1 -28 -41 -28 -24
0 -77 -11 -117 -25 -91 -31 -171 -32 -260 -5 -111 35 -183 36 -269 6 -94 -33
-158 -33 -280 -1 -119 31 -164 31 -247 0 -86 -32 -162 -32 -279 0 -113 31
-161 31 -253 0 -71 -24 -169 -33 -206 -19 -9 3 -16 16 -16 28 0 21 4 22 83 23
64 0 97 6 152 27 80 30 135 29 245 -4z m6 -75 c53 -14 118 -25 145 -25 27 0
77 11 115 25 85 32 153 32 269 0 113 -31 167 -31 257 0 90 31 147 31 267 0
119 -31 173 -31 263 0 39 14 93 25 120 25 46 0 48 -1 48 -28 0 -26 -2 -28 -35
-24 -22 3 -71 -8 -130 -27 -52 -17 -107 -31 -123 -31 -15 0 -81 14 -147 30
-66 17 -132 30 -147 30 -15 0 -69 -14 -120 -31 -87 -29 -97 -31 -158 -21 -36
6 -99 21 -140 32 -87 25 -151 22 -220 -9 -79 -35 -132 -35 -265 -2 -66 17
-132 31 -146 31 -15 0 -71 -14 -125 -31 -82 -25 -109 -29 -156 -24 -55 7 -58
8 -58 35 l0 27 68 -4 c55 -4 80 0 137 20 91 33 160 33 281 2z m-15 -70 c123
-32 199 -32 285 0 83 31 126 31 239 0 119 -33 202 -33 289 0 83 31 128 31 241
0 116 -32 191 -32 285 0 40 14 93 25 117 25 41 0 43 -1 43 -30 0 -29 -1 -30
-51 -30 -30 0 -81 -11 -121 -25 -87 -31 -131 -31 -254 1 -123 32 -196 33 -261
4 -78 -35 -143 -36 -263 -5 -124 31 -204 30 -295 -4 -71 -27 -149 -25 -255 9
-90 28 -169 27 -257 -4 -73 -26 -123 -31 -182 -20 -25 5 -31 11 -31 33 l0 26
77 -3 c64 -3 90 1 143 22 83 32 133 32 251 1z m9 -75 c124 -36 159 -36 272 1
l102 33 80 -18 c45 -10 108 -24 141 -32 72 -17 140 -11 210 19 66 29 148 28
245 -3 105 -33 192 -32 293 4 99 34 141 32 145 -6 3 -27 1 -28 -41 -28 -24 0
-77 -11 -117 -25 -91 -31 -171 -32 -260 -5 -111 35 -183 36 -269 6 -94 -33
-158 -33 -280 -1 -119 31 -164 31 -247 0 -86 -32 -162 -32 -279 0 -113 31
-161 31 -253 0 -71 -24 -169 -33 -206 -19 -9 3 -16 16 -16 29 0 21 4 22 83 22
65 0 97 6 152 27 80 30 132 29 245 -4z m6 -75 c53 -14 118 -25 145 -25 27 0
77 11 115 25 85 32 153 32 269 0 113 -31 167 -31 257 0 90 31 147 31 267 0
119 -31 173 -31 263 0 39 14 93 25 120 25 45 0 48 -2 48 -25 0 -22 -4 -25 -39
-25 -21 0 -81 -14 -132 -31 -107 -35 -129 -35 -288 7 -119 31 -132 30 -243 -7
-87 -29 -97 -31 -158 -21 -36 6 -99 21 -140 32 -87 25 -151 22 -220 -9 -79
-35 -132 -35 -265 -2 -66 17 -132 31 -146 31 -15 0 -71 -14 -125 -31 -80 -24
-109 -29 -151 -24 -35 4 -53 11 -53 20 0 7 -3 20 -6 28 -4 12 6 14 63 10 56
-4 81 0 138 20 91 33 160 33 281 2z m-15 -70 c123 -32 197 -32 283 0 83 31
128 31 241 0 117 -32 194 -32 287 0 90 31 130 31 243 0 116 -32 191 -32 285 0
40 14 91 25 112 25 35 0 38 -2 38 -28 0 -27 -3 -29 -44 -29 -24 -1 -76 -13
-115 -27 -90 -32 -134 -33 -257 0 -125 32 -195 33 -265 2 -72 -31 -176 -31
-278 1 -97 30 -180 30 -246 0 -69 -32 -183 -32 -283 -1 -96 30 -169 30 -259
-2 -113 -40 -203 -31 -203 20 0 11 17 14 73 14 50 1 92 8 137 25 84 30 135 31
251 0z m14 -77 c101 -31 181 -29 284 7 l83 29 82 -18 c44 -10 108 -24 141 -32
71 -17 141 -11 205 17 69 31 124 33 210 9 169 -47 214 -48 329 -5 24 8 63 18
87 22 44 6 44 6 44 -26 0 -29 -2 -31 -35 -31 -20 0 -68 -11 -107 -25 -88 -31
-169 -32 -258 -5 -111 35 -183 36 -269 6 -95 -33 -155 -33 -284 0 -116 30
-184 29 -257 -5 -62 -29 -152 -27 -265 4 -113 31 -161 31 -253 0 -45 -15 -96
-25 -132 -25 -55 0 -58 1 -62 28 l-4 28 71 0 c50 1 90 9 140 28 81 31 134 29
250 -6z m1451 -73 c-4 -15 -13 -25 -25 -25 -10 0 -61 -14 -112 -31 -104 -34
-139 -34 -259 1 -124 36 -159 36 -270 0 -112 -37 -135 -36 -300 10 -87 25
-152 22 -220 -9 -79 -35 -132 -35 -265 -2 -66 17 -133 31 -149 31 -16 0 -71
-13 -123 -30 -110 -35 -148 -38 -163 -11 -18 35 -12 41 40 41 28 0 82 11 122
25 42 15 94 25 125 25 29 0 96 -11 149 -25 53 -14 118 -25 145 -25 27 0 77 11
115 25 85 32 153 32 269 0 113 -31 167 -31 257 0 90 31 147 31 267 0 119 -31
172 -31 263 0 65 22 127 34 137 28 2 -1 1 -14 -3 -28z m-1465 -70 c123 -32
197 -32 283 0 83 31 128 31 241 0 117 -32 194 -32 287 0 90 31 130 31 243 0
116 -32 191 -32 285 0 40 14 84 25 96 25 21 0 22 -2 13 -30 -7 -19 -18 -30
-30 -30 -10 0 -52 -11 -93 -25 -94 -31 -130 -31 -252 1 -126 33 -194 33 -265
3 -73 -32 -175 -32 -279 0 -96 30 -178 30 -245 1 -80 -35 -145 -37 -260 -5
-126 34 -189 34 -282 1 -93 -33 -138 -34 -147 -3 -9 36 -8 37 42 37 26 1 76
12 112 25 84 30 135 31 251 0z m14 -77 c101 -31 181 -29 284 7 l83 29 82 -18
c219 -49 217 -48 265 -38 25 5 73 20 106 32 70 26 114 23 227 -11 85 -26 209
-31 248 -10 13 8 46 20 73 27 l49 13 -6 -31 c-3 -18 -7 -32 -9 -33 -1 -1 -39
-14 -84 -28 -102 -34 -136 -34 -259 -1 -125 33 -193 34 -265 3 -73 -32 -175
-32 -279 0 -96 30 -178 30 -245 1 -80 -35 -145 -37 -260 -5 -126 34 -189 34
-282 1 -94 -34 -109 -33 -121 3 -10 29 -10 29 36 36 26 4 59 13 74 21 16 8 28
13 28 10 0 -2 17 3 38 10 46 18 121 11 217 -18z m0 -80 c101 -31 181 -29 284
7 l83 29 82 -18 c44 -10 108 -24 141 -32 70 -17 136 -11 202 17 80 34 116 34
257 -1 136 -34 197 -35 255 -6 14 8 41 17 59 21 l34 7 -16 -30 c-34 -66 -189
-91 -316 -52 -36 12 -96 23 -135 26 -60 5 -80 2 -138 -20 -87 -33 -152 -33
-275 0 -109 30 -193 29 -252 -1 -56 -29 -162 -31 -250 -5 -119 36 -182 37
-274 6 -43 -14 -82 -26 -86 -26 -4 0 -12 11 -18 25 -10 23 -9 25 16 31 15 3
39 10 54 16 15 5 31 11 35 11 4 1 24 7 43 14 44 16 121 10 215 -19z m19 -77
c105 -28 161 -27 243 5 87 33 145 32 270 -2 114 -31 188 -29 268 6 64 28 147
27 235 0 99 -32 193 -36 261 -12 l57 20 -12 -30 c-23 -63 -148 -80 -281 -40
-124 38 -167 38 -273 3 -51 -17 -102 -31 -114 -31 -13 0 -79 14 -148 31 -137
34 -183 34 -260 0 -80 -35 -132 -35 -265 -2 -143 37 -159 37 -247 9 -60 -19
-70 -20 -78 -8 -6 8 -10 20 -10 25 0 9 119 51 165 58 27 4 94 -8 189 -32z
m-33 -66 c123 -32 197 -32 283 0 84 32 123 31 249 -1 117 -30 218 -30 276 0
60 31 135 32 246 1 100 -27 210 -31 258 -10 17 7 17 6 1 -28 -27 -56 -86 -61
-239 -21 -127 34 -190 33 -280 -1 -59 -23 -80 -26 -135 -21 -36 3 -94 15 -130
26 -88 29 -180 29 -245 0 -79 -35 -145 -36 -255 -7 -52 14 -111 28 -130 31
-31 5 -110 -9 -161 -29 -10 -4 -19 2 -26 17 -10 21 -7 24 46 45 73 29 127 28
242 -2z m14 -77 c101 -31 181 -29 284 7 l83 29 82 -18 c44 -10 108 -24 141
-32 70 -17 136 -11 202 17 78 33 119 34 234 4 61 -17 132 -28 172 -29 37 0 67
-3 67 -6 0 -3 -7 -16 -16 -28 -21 -30 -81 -29 -203 3 -119 31 -172 31 -255 0
-86 -32 -152 -32 -274 1 -109 30 -193 29 -252 -1 -56 -29 -162 -31 -250 -5
-93 28 -187 36 -231 21 -29 -10 -36 -9 -47 6 -18 26 -10 36 39 50 55 15 133 9
224 -19z m19 -77 c105 -28 152 -26 244 6 95 32 135 32 269 -2 122 -32 188 -30
268 5 65 28 137 28 240 -1 44 -12 102 -24 128 -28 l49 -6 -21 -26 c-23 -30
-29 -29 -175 10 -104 28 -129 27 -236 -9 -50 -16 -100 -30 -112 -30 -13 0 -79
14 -148 31 -139 35 -183 35 -265 -2 -70 -31 -147 -29 -279 5 -72 19 -123 27
-152 23 -37 -4 -46 -1 -59 19 -15 23 -14 23 23 29 20 4 41 8 47 9 15 4 94 -11
179 -33z m-29 -66 c117 -32 193 -32 279 0 84 32 127 31 251 -1 115 -30 216
-30 274 0 60 32 133 31 258 -1 l113 -30 -24 -22 -23 -22 -79 22 c-106 29 -172
28 -259 -6 -60 -23 -80 -26 -135 -21 -36 3 -94 15 -130 26 -88 29 -180 29
-245 0 -79 -35 -137 -36 -256 -7 -57 14 -120 29 -139 33 -35 6 -70 29 -70 46
0 16 96 7 185 -17z m10 -77 c99 -30 191 -28 278 6 84 32 101 32 223 0 126 -34
220 -36 287 -6 78 35 117 37 222 12 52 -13 95 -26 95 -29 0 -3 -11 -13 -23
-23 -21 -14 -29 -15 -77 -2 -79 20 -139 17 -214 -11 -86 -32 -152 -32 -274 1
-110 30 -194 29 -252 -2 -26 -14 -57 -18 -120 -19 -115 0 -213 27 -260 73
l-35 34 40 -7 c22 -3 72 -16 110 -27z m534 -75 c120 -29 187 -28 266 7 59 25
131 29 198 11 46 -13 47 -14 30 -33 -15 -16 -26 -18 -83 -12 -55 5 -77 2 -140
-20 -118 -40 -141 -41 -275 -6 -142 36 -167 37 -243 9 -139 -51 -221 -46 -299
17 -24 20 -43 38 -41 40 2 1 37 -6 78 -17 97 -25 147 -24 233 5 120 41 108 41
276 -1z m-14 -69 c115 -30 216 -30 274 0 37 20 139 33 167 22 16 -6 14 -9 -11
-26 -16 -10 -47 -22 -69 -26 -22 -3 -70 -18 -106 -31 -77 -30 -153 -27 -260 7
-81 27 -180 28 -235 5 -78 -34 -87 -34 -145 -4 l-55 28 61 1 c40 0 84 8 125
25 82 31 132 31 254 -1z m4 -73 c131 -39 177 -37 289 8 28 11 52 17 52 13 0
-12 -130 -61 -210 -79 -63 -14 -83 -14 -130 -4 -121 28 -142 30 -185 22 -63
-12 -148 16 -97 32 9 3 35 13 57 22 48 19 128 14 224 -14z m-371 -190 c114
-45 186 -62 299 -68 187 -11 374 38 540 142 l43 26 -9 -23 c-29 -74 -423 -892
-496 -1030 -20 -38 -40 -68 -44 -68 -11 0 -257 498 -516 1045 l-52 110 79 -51
c43 -29 113 -66 156 -83z m332 118 c19 -11 -96 0 -125 13 -12 5 4 6 45 2 35
-3 71 -10 80 -15z"/>
<path d="M10630 6490 c-415 -48 -673 -112 -912 -227 -65 -31 -118 -58 -118
-60 0 -2 -11 -54 -25 -116 -32 -147 -69 -356 -95 -542 -11 -82 -23 -165 -26
-182 l-5 -33 176 0 175 0 0 28 c0 78 71 230 117 251 35 16 81 13 91 -5 12 -21
-3 -89 -27 -123 -36 -52 -37 -51 36 -51 l68 0 33 70 c33 70 53 89 114 104 41
9 61 -26 47 -79 -6 -22 -17 -47 -23 -55 -31 -37 -29 -40 33 -40 l61 0 0 61 c0
104 60 155 109 93 16 -21 21 -41 21 -90 l0 -64 55 0 55 0 0 55 c0 122 78 175
125 85 8 -16 15 -54 15 -85 l0 -55 70 0 70 0 0 56 c0 106 63 149 116 79 23
-30 26 -42 22 -85 l-5 -50 53 0 54 0 0 51 c0 35 7 63 21 85 27 44 58 45 93 3
21 -25 26 -41 26 -85 l0 -54 71 0 c75 0 74 -1 38 50 -45 66 -41 140 8 140 53
0 92 -35 129 -115 l35 -75 54 0 c30 0 55 3 55 8 0 4 -11 23 -24 42 -35 52 -50
105 -36 130 23 42 104 15 145 -49 32 -51 65 -151 65 -196 l0 -35 183 0 183 0
-8 83 c-29 283 -116 783 -138 797 -37 23 -430 173 -535 205 -194 59 -320 77
-560 80 -115 2 -244 0 -285 -5z"/>
<path d="M12324 6005 c25 -66 58 -324 63 -492 l6 -183 204 0 204 0 -7 38 c-26
151 -114 298 -284 475 -97 102 -196 188 -186 162z"/>
<path d="M9156 5879 c-119 -113 -227 -239 -273 -318 -29 -48 -53 -135 -53
-193 l0 -38 195 0 195 0 0 99 c0 151 39 475 66 545 13 35 -18 12 -130 -95z"/>
<path d="M2794 5606 c-46 -15 -144 -66 -144 -75 0 -4 11 -23 24 -42 86 -126
89 -374 7 -526 l-29 -53 44 -26 c125 -73 284 -73 409 0 l45 27 -30 59 c-83
164 -80 398 6 524 l27 39 -24 18 c-72 56 -246 84 -335 55z"/>
<path d="M2586 5468 c-14 -19 -38 -61 -53 -93 -24 -52 -28 -72 -27 -150 0
-103 23 -175 75 -238 29 -35 33 -37 49 -22 10 9 28 49 41 88 47 141 25 372
-40 431 -18 16 -20 16 -45 -16z"/>
<path d="M3146 5448 c-35 -71 -49 -157 -43 -251 5 -81 37 -187 67 -227 l18
-23 30 42 c101 139 102 321 3 464 -18 26 -36 47 -41 47 -5 0 -20 -24 -34 -52z"/>
<path d="M8835 5253 c14 -80 25 -106 88 -195 90 -129 214 -275 294 -346 37
-33 69 -60 70 -59 1 1 -9 66 -23 144 -27 161 -44 326 -44 426 l0 67 -195 0
-196 0 6 -37z"/>
<path d="M9455 5228 c11 -115 56 -368 96 -552 22 -99 42 -193 45 -208 5 -23
24 -36 103 -77 178 -91 379 -165 576 -212 97 -23 113 -24 515 -24 l415 0 130
33 c166 43 422 127 551 182 l101 42 17 72 c79 322 134 599 150 749 l6 57 -185
0 -185 0 0 -25 c0 -34 -35 -122 -70 -179 l-30 -47 -53 3 c-48 3 -52 5 -55 30
-2 15 10 52 27 87 17 33 31 63 31 66 0 3 -24 5 -53 5 l-53 0 -11 -42 c-7 -24
-27 -68 -45 -98 l-33 -55 -55 0 c-52 0 -55 1 -58 27 -2 15 10 52 27 87 17 33
31 65 31 71 0 6 -30 10 -75 10 l-75 0 0 -69 c0 -54 -5 -75 -23 -102 -29 -44
-58 -48 -86 -13 -17 22 -21 40 -21 105 l0 79 -55 0 -55 0 0 -68 c0 -56 -4 -74
-25 -105 -34 -49 -68 -49 -94 0 -6 12 -11 56 -11 97 l0 76 -75 0 -75 0 0 -63
c0 -50 -5 -70 -25 -100 -32 -46 -59 -48 -85 -4 -15 23 -20 50 -20 100 l0 67
-55 0 c-54 0 -55 -1 -55 -29 0 -72 -14 -123 -41 -152 -24 -26 -31 -29 -49 -19
-31 17 -50 70 -50 140 l0 60 -65 0 c-36 0 -65 -3 -65 -6 0 -3 16 -38 35 -78
37 -78 42 -105 23 -124 -17 -17 -84 -15 -102 4 -26 25 -63 95 -81 152 l-17 52
-60 0 c-68 0 -68 -1 -22 -88 42 -78 29 -112 -42 -112 -40 0 -44 3 -75 52 -37
58 -68 139 -69 181 l0 27 -176 0 -176 0 7 -62z"/>
<path d="M12390 5233 c0 -115 -39 -402 -76 -562 -8 -35 -13 -65 -11 -67 8 -9
164 134 230 211 121 140 248 351 263 438 l6 37 -206 0 -206 0 0 -57z"/>
<path d="M5815 4653 c-400 -48 -757 -231 -1004 -515 l-70 -81 47 -59 c25 -33
87 -99 137 -146 257 -246 560 -374 923 -389 l132 -6 0 602 0 601 -67 -1 c-38
-1 -81 -4 -98 -6z"/>
<path d="M6070 4061 l0 -603 68 7 c283 27 532 124 757 293 116 88 345 326 345
360 0 5 -47 54 -104 109 -261 252 -607 406 -964 429 l-102 7 0 -602z"/>
<path d="M7238 4023 c-54 -71 -230 -240 -319 -305 -238 -176 -567 -297 -811
-298 l-48 0 0 -310 0 -310 188 0 c433 0 896 42 1274 116 l137 27 7 55 c14 117
-18 351 -72 525 -52 162 -177 389 -281 505 l-38 44 -37 -49z"/>
<path d="M10180 4005 c-228 -32 -282 -56 -432 -195 -144 -133 -262 -296 -378
-526 -101 -198 -201 -468 -243 -652 -4 -18 5 -30 56 -66 166 -118 360 -192
556 -212 l68 -6 28 118 c87 372 257 753 451 1010 131 174 338 344 507 418 l78
34 -48 15 c-95 31 -180 49 -293 63 -140 16 -225 16 -350 -1z"/>
<path d="M4680 3978 c-161 -218 -255 -444 -295 -710 -17 -113 -20 -334 -5
-343 15 -9 99 -21 360 -49 392 -43 872 -76 1123 -76 l117 0 0 309 0 308 -157
6 c-173 7 -256 21 -410 72 -234 78 -476 240 -632 426 -30 35 -60 70 -66 77 -9
10 -16 5 -35 -20z"/>
<path d="M9800 3926 c-440 -172 -764 -507 -919 -950 l-31 -88 34 -47 c56 -74
215 -227 220 -210 2 8 14 52 27 99 67 253 219 596 357 805 102 154 252 314
367 391 62 42 53 42 -55 0z"/>
<path d="M10810 3887 c-94 -41 -225 -128 -312 -207 -242 -219 -463 -610 -593
-1047 -36 -123 -77 -295 -71 -301 13 -12 317 -21 487 -12 158 7 407 28 416 34
1 1 13 59 27 129 83 410 290 824 540 1085 l71 74 -35 29 c-100 83 -348 224
-431 243 -16 4 -50 -5 -99 -27z"/>
<path d="M11333 3516 c-92 -97 -185 -221 -256 -340 l-41 -68 67 -60 c140 -125
297 -337 397 -536 137 -274 177 -455 167 -762 -4 -102 -11 -205 -16 -230 -5
-25 -8 -46 -7 -47 5 -5 75 96 125 180 85 141 151 312 188 487 14 66 18 131 18
290 0 178 -3 219 -23 309 -74 328 -254 638 -483 832 l-47 39 -89 -94z"/>
<path d="M10977 2952 c-77 -165 -157 -417 -187 -592 l-11 -66 71 -74 c302
-315 394 -738 251 -1157 -21 -62 -36 -113 -33 -113 9 0 115 62 177 103 100 67
214 167 291 256 l72 84 14 86 c17 110 16 422 -1 521 -58 335 -241 691 -490
954 -31 32 -68 67 -82 77 l-26 18 -46 -97z"/>
<path d="M7605 2890 c-70 -21 -325 -63 -515 -85 -230 -27 -443 -41 -794 -51
l-239 -7 6 -180 c4 -99 7 -220 7 -269 l0 -88 103 0 c303 -1 619 -102 896 -288
l84 -56 89 93 c91 97 205 256 260 365 74 147 136 353 154 514 7 68 7 68 -51
52z"/>
<path d="M4380 2846 c0 -99 71 -348 141 -493 76 -159 246 -391 335 -459 l32
-25 90 51 c272 155 622 264 913 286 l89 7 0 268 0 267 -82 6 c-46 3 -173 8
-283 11 -292 8 -795 50 -1088 90 -144 20 -147 20 -147 -9z"/>
<path d="M8822 2746 c-36 -166 -47 -449 -22 -601 14 -91 21 -100 142 -201 230
-193 528 -346 816 -418 161 -41 278 -57 472 -63 292 -9 584 29 827 108 70 23
67 13 41 134 -37 174 -197 438 -332 549 l-46 37 -77 -10 c-344 -45 -749 -39
-1019 14 -269 54 -472 171 -692 399 l-99 104 -11 -52z"/>
<path d="M3120 2415 c-123 -30 -244 -100 -261 -152 -7 -23 -18 -33 -38 -38
-46 -10 -121 -129 -157 -250 -25 -82 -25 -258 0 -340 37 -124 143 -285 188
-285 13 0 18 -5 15 -14 -11 -29 133 -111 248 -141 76 -19 214 -19 290 0 75 20
166 62 225 105 38 29 42 34 25 40 -16 6 -14 8 12 13 19 4 34 14 38 27 3 11 12
20 20 20 7 0 27 21 43 48 148 230 148 491 -1 716 -22 33 -45 54 -74 67 -30 12
-43 24 -43 38 0 41 -131 117 -251 146 -78 18 -204 18 -279 0z m-230 -154 c0
-10 -8 -28 -17 -39 -20 -22 -63 -39 -63 -24 0 6 12 13 26 16 16 4 29 17 36 36
12 34 18 38 18 11z m754 -5 c4 -15 17 -28 38 -35 17 -6 29 -14 26 -17 -8 -8
-56 6 -66 19 -15 19 -24 57 -14 57 6 0 13 -11 16 -24z m-34 -36 c0 -12 12 -22
35 -30 44 -14 47 -32 3 -19 -39 11 -53 25 -62 63 -6 26 -5 28 8 17 9 -8 16
-22 16 -31z m-680 26 c0 -1 -5 -17 -11 -34 -8 -22 -20 -34 -45 -42 -47 -16
-55 -5 -11 13 22 10 37 24 41 41 3 14 11 26 16 26 6 0 10 -2 10 -4z m30 -54
c0 -10 -31 -55 -44 -64 -17 -12 -88 -10 -81 2 3 6 22 10 40 10 28 0 37 6 50
30 14 28 35 41 35 22z m626 -17 c11 -17 29 -27 55 -31 50 -8 51 -24 2 -18 -57
8 -61 10 -78 43 -19 37 -2 41 21 6z m-31 -55 c13 -24 22 -30 50 -30 18 0 37
-4 40 -10 7 -11 -37 -13 -73 -4 -19 6 -52 49 -52 69 0 16 22 1 35 -25z m-565
13 c0 -25 -48 -61 -87 -66 -54 -6 -57 8 -3 17 27 4 45 14 56 31 16 24 34 33
34 18z m20 -70 c0 -4 -10 -17 -22 -30 -23 -24 -80 -31 -108 -13 -11 7 -2 10
31 10 33 0 51 6 64 20 18 20 35 26 35 13z m535 -14 c16 -16 26 -19 57 -14 22
4 38 3 38 -3 0 -5 -19 -12 -42 -15 -38 -5 -46 -3 -73 23 -21 21 -25 30 -14 30
9 0 24 -9 34 -21z m-525 -57 c0 -5 -13 -21 -29 -36 -27 -26 -31 -27 -70 -16
-22 6 -41 15 -41 21 0 6 9 8 20 5 11 -3 28 -8 38 -11 11 -3 27 4 42 20 24 25
40 32 40 17z m515 -12 c16 -17 26 -20 63 -14 31 5 43 3 38 -4 -3 -6 -27 -14
-52 -18 -39 -5 -49 -3 -70 17 -13 12 -24 26 -24 31 0 15 27 8 45 -12z m52
-100 c40 23 43 24 43 8 0 -7 -18 -23 -39 -35 l-40 -23 -33 27 c-18 15 -35 28
-37 29 -1 2 0 8 4 14 4 7 17 2 37 -15 l30 -26 35 21z m-557 11 c0 -6 -16 -22
-35 -36 -37 -29 -53 -28 -95 4 -34 27 -17 38 24 16 33 -18 34 -18 61 3 30 24
45 28 45 13z m-63 -111 c7 0 25 7 39 16 36 24 44 6 9 -22 -38 -30 -63 -30 -98
1 -35 31 -26 54 10 25 14 -11 32 -20 40 -20z m653 31 c0 -5 -16 -21 -36 -36
-38 -29 -47 -28 -98 10 -31 23 -9 31 29 11 33 -18 34 -18 61 3 28 22 44 27 44
12z m-687 -93 c29 -21 31 -21 59 -5 33 19 48 21 48 8 0 -11 -62 -51 -78 -51
-14 0 -72 49 -72 61 0 14 9 11 43 -13z m582 2 c32 -20 32 -20 58 0 26 20 47
26 47 13 0 -5 -16 -21 -36 -36 l-35 -29 -40 26 c-21 15 -39 31 -39 36 0 14 9
12 45 -10z m-533 -94 c51 8 43 -9 -12 -24 -30 -7 -40 -5 -67 16 -40 30 -33 51
7 22 23 -16 37 -19 72 -14z m631 2 c-31 -31 -32 -31 -77 -18 -25 7 -46 17 -46
22 0 9 28 6 62 -7 8 -3 26 3 39 14 40 33 57 25 22 -11z m7 -68 c-18 -26 -28
-30 -66 -30 -24 0 -44 5 -44 10 0 6 17 10 38 10 31 0 42 6 62 32 30 40 39 19
10 -22z m-717 10 c15 -25 24 -30 58 -30 21 0 39 -4 39 -10 0 -5 -20 -10 -45
-10 -40 0 -47 4 -65 33 -11 17 -20 35 -20 40 0 16 17 5 33 -23z m-26 -62 c6
-15 25 -27 54 -34 l44 -12 -47 -1 c-43 -1 -49 2 -63 29 -17 33 -18 40 -7 40 5
0 13 -10 19 -22z m783 15 c0 -5 -8 -18 -18 -31 -20 -26 -102 -44 -102 -23 0 6
16 11 35 11 26 0 39 6 51 25 16 24 34 34 34 18z m6 -67 c-7 -28 -25 -40 -75
-51 -22 -5 -31 -4 -27 3 3 6 20 13 36 17 20 4 36 17 46 37 18 34 29 31 20 -6z
m-801 -6 c10 -20 23 -30 38 -30 12 0 29 -5 37 -10 12 -8 10 -10 -10 -9 -49 2
-72 14 -85 47 -18 40 -1 42 20 2z m835 -23 c0 -25 -26 -48 -63 -56 -20 -5 -37
-5 -37 -1 0 4 15 11 33 14 23 4 38 15 45 31 13 27 22 32 22 12z m-862 -22 c8
-17 20 -25 36 -25 14 0 28 -4 31 -10 7 -12 -1 -12 -43 -4 -25 5 -52 36 -52 59
0 15 18 1 28 -20z"/>
<path d="M3666 2266 c3 -8 13 -17 22 -21 13 -5 13 -2 -3 15 -21 24 -26 25 -19
6z"/>
<path d="M6068 2164 c-2 -5 -2 -177 0 -383 l4 -374 97 6 c317 20 656 158 899
365 l53 45 -48 34 c-199 143 -447 249 -675 288 -110 18 -324 31 -330 19z"/>
<path d="M5805 2153 c-181 -23 -428 -98 -625 -190 -100 -46 -260 -135 -260
-143 1 -9 153 -127 220 -170 216 -140 539 -240 771 -240 l79 0 0 128 c0 70 -3
238 -7 375 l-6 247 -71 -1 c-39 -1 -84 -4 -101 -6z"/>
<path d="M8816 1993 c39 -166 127 -366 222 -509 413 -613 1204 -857 1892 -583
l76 30 31 82 c59 154 83 277 83 422 0 125 -1 127 -53 109 -200 -71 -492 -114
-767 -114 -272 0 -479 33 -709 111 -239 82 -498 232 -689 399 -82 72 -92 78
-86 53z"/>
<path d="M2005 1250 c-145 -17 -284 -83 -355 -168 -40 -48 -94 -162 -111 -232
-17 -73 -17 -261 0 -330 50 -203 189 -336 418 -402 90 -26 72 -26 783 -9 757
17 2239 32 3965 39 l1600 7 40 79 40 79 0 121 c0 103 -4 131 -25 191 l-25 70
-55 7 c-30 4 -226 21 -435 38 -664 53 -1452 121 -2445 211 -1352 122 -1497
135 -2965 274 -363 34 -352 34 -430 25z"/>
<path d="M8425 673 c38 -89 48 -129 52 -198 6 -92 -12 -178 -55 -259 -15 -28
-28 -54 -30 -58 -2 -5 33 -8 77 -8 l81 0 24 38 c60 89 78 211 52 339 -9 45
-23 97 -31 116 -12 30 -19 35 -61 41 -26 3 -62 6 -81 6 -30 0 -34 -3 -28 -17z"/>
<path d="M12235 665 c-45 -24 -101 -82 -127 -131 l-23 -44 -285 0 c-365 0
-902 25 -1800 85 -206 14 -390 26 -408 28 -30 3 -33 1 -27 -17 36 -122 27
-248 -25 -362 -16 -37 -30 -67 -30 -68 0 0 576 -3 1281 -5 l1281 -4 45 -48
c59 -64 139 -103 193 -96 54 7 105 40 141 94 99 143 99 343 0 486 -55 81 -151
117 -216 82z"/>
<path d="M8697 598 c44 -123 35 -262 -23 -382 -13 -27 -24 -54 -24 -58 0 -5
35 -8 78 -6 l77 3 32 65 c55 112 61 245 16 386 l-16 52 -51 6 c-28 3 -65 6
-82 6 l-32 0 25 -72z"/>
<path d="M8935 633 c36 -93 45 -230 21 -318 -10 -41 -36 -102 -64 -157 -2 -5
24 -8 57 -8 58 0 62 2 81 32 11 18 30 58 42 88 28 73 30 218 4 307 -20 67 -28
73 -105 73 -37 0 -42 -2 -36 -17z"/>
<path d="M9150 622 c0 -7 4 -21 9 -30 5 -10 14 -50 19 -91 13 -88 2 -170 -34
-256 -41 -97 -43 -90 26 -87 59 4 61 5 84 45 56 97 70 231 38 357 l-17 65 -63
5 c-47 4 -62 2 -62 -8z"/>
<path d="M9375 581 c37 -105 25 -248 -30 -368 -14 -30 -25 -56 -25 -57 0 0 23
1 50 2 47 4 52 7 75 45 52 89 68 225 41 340 -7 32 -16 60 -18 63 -3 2 -28 7
-57 11 l-51 6 15 -42z"/>
</g>
</svg>
